<?xml version="1.0" standalone="no"?>
<!DOCTYPE svg PUBLIC "-//W3C//DTD SVG 20010904//EN"
 "http://www.w3.org/TR/2001/REC-SVG-20010904/DTD/svg10.dtd">
<svg version="1.0" xmlns="http://www.w3.org/2000/svg"
 width="142.000000pt" height="133.000000pt" viewBox="0 0 142.000000 133.000000"
 preserveAspectRatio="xMidYMid meet">

<g transform="translate(0.000000,133.000000) scale(0.100000,-0.100000)"
fill="#000000" stroke="none">
<path d="M560 1245 c-210 -47 -376 -198 -446 -405 -28 -82 -26 -244 4 -330 63
-184 192 -312 377 -376 69 -24 96 -28 195 -28 101 0 125 3 195 27 159 56 273
155 346 302 125 253 40 560 -199 719 -134 89 -321 125 -472 91z m236 -46 c96
-17 216 -81 287 -152 311 -312 130 -825 -313 -889 -326 -48 -629 202 -630 519
0 198 119 384 303 473 119 57 226 72 353 49z"/>
<path d="M260 875 l0 -25 140 0 140 0 0 -25 0 -25 -140 0 -140 0 0 -59 c0 -91
1 -91 196 -91 l164 0 0 25 0 25 -145 0 -145 0 0 25 0 25 140 0 140 0 0 75 0
75 -175 0 -175 0 0 -25z"/>
<path d="M740 870 l0 -30 145 0 145 0 0 -100 c0 -54 -5 -122 -11 -150 l-11
-51 -46 3 -47 3 -3 98 -3 97 -29 0 -29 0 -3 -97 -3 -98 -62 -3 c-59 -3 -63 -4
-63 -27 l0 -25 200 0 200 0 0 25 c0 19 -5 25 -21 25 -18 0 -20 4 -15 28 4 15
10 96 13 180 l6 152 -182 0 -181 0 0 -30z"/>
<path d="M410 585 l0 -45 -85 0 c-84 0 -85 0 -85 -25 l0 -25 200 0 200 0 0 25
c0 25 -1 25 -85 25 l-85 0 0 45 c0 43 -1 45 -30 45 -29 0 -30 -2 -30 -45z"/>
</g>
</svg>
